<?xml version="1.0" encoding="UTF-8"?>
<svg id="Layer_1" data-name="Layer 1" xmlns="http://www.w3.org/2000/svg" viewBox="0 0 1960.01 297.98">
  <defs>
    <style>
      .cls-1 {
        fill: #002676;
      }

      .cls-2 {
        fill: #004aae;
      }
    </style>
  </defs>
  <g id="Berkeley_Wordmarks" data-name="Berkeley Wordmarks">
    <g id="_5:Wordmark" data-name=" 5:Wordmark">
      <path class="cls-1" d="M727.21,148.69c7.57,0,14.69-5.6,28.92-35.43,9.69-21.2,16.96-39.97,24.53-59.2,2.42-6.21,3.63-7.42,7.42-8.48,2.73-.76,3.79-1.82,3.79-3.48,0-1.51-.91-2.88-3.18-2.88-3.33,0-7.27.45-11.81.45s-8.18-.45-11.66-.45c-2.12,0-3.18,1.21-3.18,2.73,0,1.67,1.06,2.73,3.48,3.48,6.66,1.82,7.27,4.69,4.69,12.57-4.09,12.42-8.63,24.38-15.6,40.28-5.91-14.69-10.9-27.86-15.9-42.7-1.82-5.75-1.21-8.18,5.9-10.14,2.73-.76,3.63-1.67,3.63-3.33s-1.21-2.88-3.33-2.88c-4.54,0-9.24.45-15.44.45-6.66,0-11.51-.45-16.2-.45-2.27,0-3.33,1.36-3.33,2.88,0,1.82.91,2.73,3.63,3.48,3.48.91,4.54,2.12,6.66,7.57,8.33,20.74,15.75,39.06,25.44,63.9-6.51,11.96-11.36,14.69-17.87,15.9-5.3.91-8.78,4.24-8.78,8.48,0,3.48,2.42,7.27,8.18,7.27M679.97,45.28c9.69,0,14.08,8.78,14.08,12.26,0,1.21-.61,2.12-1.97,2.42-8.18,2.12-18.02,4.09-28.31,5.9,1.82-13.78,8.63-20.59,16.2-20.59M681.03,113.41c13.17,0,22.26-6.51,27.71-13.02,2.42-2.88.91-5.45-1.51-5.45-.61,0-1.21.3-1.82.61-6.36,3.94-11.36,6.06-18.17,6.06-14.99,0-23.92-13.17-23.92-28.16v-.3c14.84-2.12,29.37-5,44.36-8.48,1.97-.45,3.33-1.97,2.88-4.24-2.42-10.9-12.42-22.86-29.68-22.86s-33.16,16.05-33.16,39.22c0,21.8,14.08,36.64,33.31,36.64M610.33,112.2c5,0,10.3-.45,16.35-.45s11.66.45,16.66.45c2.27,0,3.33-1.36,3.33-2.88,0-1.67-1.06-3.18-3.63-3.48-6.81-.76-8.02-1.51-8.02-4.69-.3-14.69-.3-28.47-.3-42.09,0-12.57,0-26.35.45-56.93,0-1.97-1.21-2.42-2.88-1.97-7.87,1.97-15.44,3.18-21.65,3.78-2.57.15-3.63,1.36-3.63,2.88,0,1.67,1.06,2.88,3.94,3.33,6.66,1.21,7.42,1.97,7.57,5.45.3,15.29.3,29.68.3,43.46s0,27.41-.3,42.09c-.15,3.18-1.06,3.79-7.87,4.69-2.73.3-3.63,1.82-3.63,3.48,0,1.51,1.06,2.88,3.33,2.88M576.11,45.28c9.69,0,14.08,8.78,14.08,12.26,0,1.21-.61,2.12-1.97,2.42-8.18,2.12-18.02,4.09-28.31,5.9,1.82-13.78,8.63-20.59,16.2-20.59M577.17,113.41c13.17,0,22.26-6.51,27.71-13.02,2.42-2.88.91-5.45-1.51-5.45-.61,0-1.21.3-1.82.61-6.36,3.94-11.36,6.06-18.17,6.06-14.99,0-23.92-13.17-23.92-28.16v-.3c14.84-2.12,29.37-5,44.36-8.48,1.97-.45,3.33-1.97,2.88-4.24-2.42-10.9-12.42-22.86-29.68-22.86s-33.16,16.05-33.16,39.22c0,21.8,14.08,36.64,33.31,36.64M467.85,112.2c5,0,9.99-.45,16.05-.45s11.2.45,16.2.45c2.27,0,3.33-1.36,3.33-2.88,0-1.67-.91-2.88-3.63-3.48-6.81-1.06-7.57-1.51-7.57-4.69-.15-4.85-.15-9.69-.15-14.38,3.33-2.12,6.66-4.39,9.84-6.66,6.36,9.54,12.87,19.38,19.23,28.47,1.97,2.88,3.03,3.48,6.21,3.48,4.54,0,10.14-.15,16.66,0,2.27,0,3.48-1.36,3.48-3.03,0-1.51-.61-2.88-3.79-3.18-4.24-.45-6.51-2.57-10.14-7.27-6.36-8.63-13.02-18.47-19.23-28.01,0-.15.15-.15.3-.3,11.66-10.14,19.38-17.87,25.13-25.44.76-1.06,1.21-1.97,1.21-2.88,0-1.82-1.21-3.03-3.63-2.88-7.12.61-13.63.61-21.65.15-3.18-.15-4.09,1.36-4.09,2.88,0,1.36,1.06,2.88,3.18,3.33l3.03.76c5,1.21,5,5.3-1.21,11.81-6.66,7.12-15.29,13.93-24.68,19.83v-18.77c0-12.57,0-26.35.45-56.93,0-1.97-1.21-2.42-2.88-1.97-7.87,1.97-15.44,3.18-21.65,3.78-2.57.15-3.63,1.36-3.63,2.88,0,1.67,1.06,2.88,3.94,3.33,6.66,1.21,7.42,1.97,7.57,5.45.3,15.29.3,29.68.3,43.46s0,27.41-.3,42.09c-.15,3.18-.76,3.63-7.57,4.69-2.73.61-3.63,1.82-3.63,3.48,0,1.51,1.06,2.88,3.33,2.88M411.67,112.2c4.85,0,9.99-.45,15.9-.45s12.72.45,17.56.45c2.12,0,3.18-1.36,3.18-2.88,0-1.67-.91-3.03-3.94-3.48-7.72-.91-8.48-1.67-8.63-4.85-.3-8.33-.3-15.75-.3-25.44v-12.72c7.87-10.45,11.51-12.57,15.44-12.57,4.69,0,8.63,5.91,10.6,5.91,1.06,0,1.67-.3,2.42-1.82,1.51-3.03,3.03-6.06,4.54-9.24.91-1.97.45-3.03-1.36-4.24-3.63-2.42-7.42-4.09-11.2-4.09-6.66,0-12.72,5.6-20.29,18.02,0-5,.15-10.45.3-16.5,0-1.97-1.21-2.42-2.88-1.97-7.87,2.12-15.29,3.33-21.65,3.79-2.57.3-3.48,1.36-3.48,3.03s.91,2.88,3.78,3.33c6.66,1.21,7.42,1.97,7.57,5.3.3,7.57.3,15.6.3,23.77,0,9.69,0,17.11-.3,25.44-.15,3.18-.61,3.94-7.27,4.85-2.73.61-3.63,1.82-3.63,3.48,0,1.51,1.06,2.88,3.33,2.88M374.88,45.28c9.69,0,14.08,8.78,14.08,12.26,0,1.21-.61,2.12-1.97,2.42-8.18,2.12-18.02,4.09-28.31,5.9,1.82-13.78,8.63-20.59,16.2-20.59M375.94,113.41c13.17,0,22.26-6.51,27.71-13.02,2.42-2.88.91-5.45-1.51-5.45-.61,0-1.21.3-1.82.61-6.36,3.94-11.36,6.06-18.17,6.06-14.99,0-23.92-13.17-23.92-28.16v-.3c14.84-2.12,29.37-5,44.36-8.48,1.97-.45,3.33-1.97,2.88-4.24-2.42-10.9-12.42-22.86-29.68-22.86s-33.16,16.05-33.16,39.22c0,21.8,14.08,36.64,33.31,36.64M283.58,103.87c-4.54-1.06-6.06-2.57-6.21-8.03-.3-11.51-.3-20.44-.3-36.79v-.3c25.74-.61,39.22,5.15,39.22,23.92,0,11.05-7.87,22.11-23.77,22.11-4.09,0-6.66-.3-8.93-.91M277.38,19.53c0-3.03.76-4.24,3.03-5.15,1.82-.61,4.54-.91,8.78-.91,12.57,0,20.29,6.81,20.29,20.14,0,7.42-2.42,13.63-6.36,18.32-7.72-1.36-16.5-1.82-26.04-1.36,0-11.96,0-20.59.3-31.04M294.94,113.11c25.13,0,40.12-14.69,40.12-31.8,0-13.48-8.18-22.11-21.65-26.8,7.57-4.54,14.08-12.87,14.08-22.86,0-16.2-13.48-26.19-37.1-26.19-10.14,0-12.57.91-22.11.91s-15.9-.76-19.83-.76c-2.42,0-3.63,1.36-3.63,3.33,0,1.67.91,3.03,4.09,3.63,8.18,1.21,10.14,2.88,10.14,6.96.15,12.87.3,22.56.3,39.52s0,26.95-.3,39.82c-.15,4.39-1.67,5.6-9.84,6.36-3.18.45-4.09,1.97-4.09,3.63,0,1.97,1.21,3.33,3.63,3.33,5.9,0,11.51-.3,19.53-.3,7.57,0,14.54,1.21,26.65,1.21M171.84,114.02c12.87,0,24.83-3.63,36.19-11.05,3.18-1.97,4.09-4.09,4.09-6.21,0-4.09.3-7.87.15-11.2-.15-2.57-1.36-4.09-3.48-4.09-1.67,0-2.88,1.06-3.48,3.33-3.94,13.17-15.75,20.29-30.74,20.29-22.11,0-38.76-18.32-38.76-46.03s15.75-46.33,39.06-46.33c15.14,0,24.23,5.6,29.22,17.41,1.06,2.42,1.97,3.63,3.94,3.63,2.12,0,3.03-1.51,3.18-3.94.15-3.48.15-8.93.15-12.26,0-2.27-.76-4.09-4.09-5.9-8.03-4.39-19.23-7.57-31.19-7.57-35.43,0-59.66,24.38-59.66,56.63s22.71,53.3,55.42,53.3M56.77,114.02c26.19,0,43.46-16.2,43.46-44.82v-10.14c0-17.11,0-27.1.15-40.88.15-3.18,1.67-4.54,9.99-5.3,2.88-.45,3.79-1.97,3.79-3.63,0-1.97-1.21-3.33-3.48-3.33-4.84,0-9.54.45-15.6.45s-11.05-.45-16.05-.45c-2.27,0-3.48,1.36-3.48,3.33,0,1.51.91,3.03,3.94,3.48,8.78.91,10.3,2.27,10.3,5.45.3,13.78.3,23.77.3,40.88v8.93c0,22.41-11.05,33.76-29.53,33.76s-28.77-11.81-28.77-32.7v-9.99c0-17.11,0-27.1.3-40.88,0-3.18,1.51-4.54,9.84-5.3,3.03-.45,3.94-1.97,3.94-3.63,0-1.97-1.21-3.33-3.63-3.33-5.75,0-11.51.45-19.38.45s-13.48-.45-19.38-.45c-2.27,0-3.48,1.36-3.48,3.33,0,1.67.91,3.18,3.94,3.63,8.33.76,9.84,2.12,9.84,5.3.3,13.78.3,23.77.3,40.88v11.96c0,28.31,16.35,43,42.7,43"/>
    </g>
  </g>
  <g id="Double_Unit_Name_Lines" data-name="Double Unit Name Lines">
    <g id="_5:Vertical_Unit_Lines_Outline" data-name=" 5:Vertical Unit Lines Outline">
      <path class="cls-2" d="M0,211.99c0-31.73,23.43-55.01,56.64-55.01,12.31,0,23.43,2.97,31.43,7.27,2.67,1.48,3.41,3.26,3.56,5.04,0,3.11,0,9.64-.15,12.6-.15,2.22-1.04,3.71-2.97,3.71-1.78,0-2.67-1.19-3.41-3.26-4.89-12.75-14.38-17.64-29.21-17.64-24.17,0-41.96,17.5-41.96,45.82s17.64,46.11,40.33,46.11c10.68,0,19.42-3.26,24.17-6.82,2.08-1.63,2.67-3.26,2.82-6.23.15-4.75.15-12.16,0-19.28-.15-3.26-1.78-4.6-11.71-5.34-2.52-.3-3.41-1.63-3.41-3.11,0-1.63,1.19-2.82,3.26-2.82,5.34,0,10.38.44,16.61.44s11.27-.44,16.61-.44c2.08,0,3.26,1.19,3.26,2.82,0,1.48-.89,2.82-3.56,3.11-7.12.74-8.75,2.08-8.75,5.34-.3,7.12-.15,13.2,0,19.57,0,2.82.59,4.74.59,6.82,0,2.52-1.04,3.41-3.85,4.3-7.41,2.22-18.98,9.34-38.11,9.34-30.69,0-52.19-21.5-52.19-52.34h0Z"/>
      <path class="cls-2" d="M112.1,227.71c0-21.8,14.53-37.22,33.21-37.22s32.62,14.83,32.62,36.48-14.68,37.22-33.21,37.22-32.62-14.68-32.62-36.48ZM165.48,230.08c0-21.2-10.23-32.62-21.65-32.62s-19.28,10.82-19.28,26.99c0,21.2,10.23,32.62,21.5,32.62s19.42-10.82,19.42-26.99h0Z"/>
      <path class="cls-2" d="M182.38,260.18c0-1.48.89-2.52,3.26-2.97,6.82-1.04,7.41-1.63,7.41-5.19.3-14.53.3-28.17.3-41.37s0-27.58-.15-42.7c-.15-3.56-.89-4.3-8.45-5.63-2.52-.45-3.41-1.48-3.41-2.97,0-1.33.89-2.37,3.26-2.52,5.04-.44,11.71-1.63,18.24-3.56,1.63-.44,2.82.3,2.82,2.08-.44,28.62-.44,43.15-.44,55.31,0,13.2,0,26.84.3,41.37,0,3.56.59,4.15,7.41,5.19,2.37.44,3.26,1.48,3.26,2.97,0,1.33-1.04,2.52-2.97,2.52-4.15,0-8.9-.44-13.94-.44s-9.79.44-13.94.44c-1.93,0-2.97-1.19-2.97-2.52h.01Z"/>
      <path class="cls-2" d="M220.78,229.64c0-24.61,15.42-39.14,33.51-39.14,6.82,0,12.31,2.37,16.61,6.08,0-9.04-.15-18.83-.3-28.62,0-3.56-.74-4.3-8.3-5.63-2.52-.45-3.41-1.48-3.41-2.97,0-1.33.89-2.37,3.26-2.52,5.04-.44,11.71-1.63,18.24-3.56,1.63-.44,2.82.3,2.82,2.08-.44,28.62-.44,43.15-.44,55.31,0,19.28,0,28.32.3,38.55.15,3.56.74,4.15,8.3,5.63,2.67.59,3.41,1.48,3.41,2.97,0,1.34-.89,2.37-3.26,2.52-5.04.45-11.57,1.63-18.24,3.56-1.48.44-2.82-.3-2.82-2.08,0-3.56.15-6.97.15-10.08-6.52,8.45-13.79,12.31-21.65,12.31-16.46,0-28.17-15.12-28.17-34.4h-.01ZM253.25,254.85c6.67-.15,12.75-3.56,17.5-10.23.15-12.16.15-21.5.15-33.96v-5.49c-3.71-4.89-9.49-7.71-15.72-7.71-12.9,0-22.24,10.68-22.24,29.36,0,17.2,9.19,28.02,20.31,28.02h0Z"/>
      <path class="cls-2" d="M298.03,260.18c0-1.48.89-2.67,3.26-2.97,6.82-1.04,7.27-1.63,7.41-5.19.3-8.01.3-14.98.3-24.76,0-8.01-.15-15.27-.3-22.69-.15-3.56-.74-4.15-8.3-5.49-2.67-.44-3.41-1.63-3.41-2.97,0-1.48.89-2.37,3.11-2.67,5.19-.3,11.71-1.63,18.24-3.41,1.63-.44,2.82.3,2.82,2.08,0,3.86-.15,7.41-.15,10.68,6.82-7.27,14.68-12.31,22.83-12.31,8.9,0,15.57,4.6,18.09,13.34,7.12-7.71,15.27-13.34,23.87-13.34,11.42,0,19.57,7.71,19.13,22.09-.15,5.93-.15,10.08-.15,14.68,0,9.79,0,16.75.15,24.76.15,3.56.59,4.15,7.41,5.19,2.52.3,3.41,1.48,3.41,2.97,0,1.33-1.04,2.52-2.97,2.52-4.3,0-8.9-.44-13.94-.44s-9.49.44-13.79.44c-1.93,0-2.82-1.19-2.82-2.52,0-1.48.74-2.67,3.11-2.97,6.67-1.04,7.12-1.63,7.27-5.19.3-8.01.3-14.98.3-24.76,0-4.45,0-8.45-.15-14.09-.3-7.71-3.41-13.49-12.46-13.49-5.93,0-12.46,4-17.5,9.19.15,1.19.15,2.37.15,3.71-.15,5.93-.15,10.08-.15,14.68,0,9.79,0,16.75.15,24.76.15,3.56.59,4.15,7.41,5.19,2.22.3,3.11,1.48,3.11,2.97,0,1.33-1.04,2.52-2.97,2.52-4.15,0-8.75-.44-13.64-.44s-9.49.44-13.79.44c-1.93,0-2.97-1.19-2.97-2.52,0-1.48.89-2.67,3.26-2.97,6.67-1.04,7.12-1.63,7.27-5.19.3-8.01.3-14.98.3-24.76,0-4.45,0-8.45-.15-14.09-.3-7.71-3.41-13.49-12.46-13.49-5.93,0-12.46,4-17.5,9.19v18.39c0,9.79,0,16.75.15,24.76.15,3.56.59,4.15,7.41,5.19,2.22.3,3.11,1.48,3.11,2.97,0,1.33-1.04,2.52-2.97,2.52-4.15,0-8.75-.44-13.64-.44s-9.79.44-13.94.44c-2.08,0-2.97-1.19-2.97-2.52h.06Z"/>
      <path class="cls-2" d="M423.17,248.47c0-13.94,16.16-20.91,39.29-26.54,0-3.26.15-6.67.3-10.23.3-9.34-4.45-13.94-11.27-13.94-9.19,0-16.31,4.74-16.31,9.79,0,1.48.3,2.97.3,4.3,0,2.97-2.67,6.23-6.82,6.23-3.41,0-6.38-1.93-6.38-6.82,0-8.01,12.6-20.61,31.14-20.61,10.97,0,21.8,4.75,21.2,20.02-.44,11.12-.44,20.17-.3,28.32.15,9.93,3.11,14.53,8.6,17.64,1.78,1.04,1.93,2.67,0,4.15-1.63,1.04-3.71,2.52-5.34,3.41-2.52,1.33-3.26,1.19-4.89.15-3.56-2.22-6.97-6.52-8.75-13.79-4.45,5.63-13.64,13.79-23.28,13.79-11.27,0-17.5-6.52-17.5-15.87h.01ZM445.56,255.14c5.04,0,12.01-3.56,17.5-9.19-.3-1.93-.44-4-.44-6.23-.15-3.86-.15-8.01-.15-12.01-16.61,4-27.13,9.64-27.13,18.39,0,6.08,4.15,9.04,10.23,9.04h0Z"/>
      <path class="cls-2" d="M489.01,260.18c0-1.48.89-2.67,3.26-2.97,6.82-1.04,7.27-1.63,7.41-5.19.3-8.01.3-14.98.3-24.76,0-8.01-.15-15.27-.3-22.69-.15-3.56-.74-4.15-8.3-5.49-2.67-.44-3.41-1.63-3.41-2.97,0-1.48.89-2.37,3.11-2.67,5.19-.3,11.71-1.63,18.24-3.41,1.63-.44,2.82.3,2.82,2.08,0,3.86-.15,7.41-.15,10.68,6.97-7.41,15.27-12.31,23.72-12.31,11.42,0,19.72,7.71,19.42,22.09-.15,5.93-.15,10.08-.15,14.68,0,9.79,0,16.75.15,24.76.15,3.56.59,4.15,7.41,5.19,2.52.3,3.41,1.48,3.41,2.97,0,1.33-1.04,2.52-2.97,2.52-4.3,0-9.04-.44-13.94-.44s-9.64.44-13.79.44c-1.93,0-2.97-1.19-2.97-2.52,0-1.48.89-2.67,3.11-2.97,6.82-1.04,7.27-1.63,7.41-5.19.15-8.01.15-14.98.15-24.76,0-4.45,0-8.45-.15-14.09-.15-7.71-3.41-13.49-12.9-13.49-6.08,0-12.9,4-18.09,9.19v18.39c0,9.79,0,16.75.15,24.76.15,3.56.59,4.15,7.41,5.19,2.22.3,3.11,1.48,3.11,2.97,0,1.33-.89,2.52-2.97,2.52-4.15,0-8.75-.44-13.64-.44s-9.79.44-13.94.44c-2.08,0-2.97-1.19-2.97-2.52h.05Z"/>
      <path class="cls-2" d="M612.81,256.48c-2.22-1.78-3.11-3.41-3.26-5.63-.44-4-.74-9.64-.59-14.23.15-2.37,1.19-3.56,2.82-3.56,1.48,0,2.67,1.04,3.11,2.82,3.41,16.01,12.6,21.2,25.06,21.2s22.24-8.01,22.24-19.28c0-24.61-50.27-21.2-50.27-52.49,0-16.16,13.2-28.17,33.07-28.17,6.82,0,15.42,1.48,22.09,5.63,2.37,1.33,3.11,2.67,3.26,4.45.15,3.56.3,7.86.15,12.01,0,1.93-.89,3.26-2.67,3.26-1.63,0-2.52-1.04-3.26-3.56-3.41-10.08-10.53-14.83-20.61-14.83-11.12,0-19.57,6.38-19.57,16.75,0,24.76,50.71,21.35,50.71,52.64,0,16.75-13.2,30.69-36.03,30.69-10.68,0-19.42-2.97-26.24-7.71h-.01Z"/>
      <path class="cls-2" d="M682.8,229.05c0-22.09,15.12-38.4,33.66-38.4,15.12,0,23.43,8.75,23.43,15.57,0,4.15-2.82,6.23-6.23,6.23-2.82,0-6.08-2.08-7.56-7.41-1.63-5.63-4.74-7.71-10.53-7.71-10.68,0-20.46,9.49-20.46,28.32,0,16.01,8.6,28.91,22.69,28.91,6.82,0,12.46-2.67,18.53-7.71.89-.74,1.48-1.04,2.22-1.04,1.93,0,2.97,2.37,1.33,4.6-6.67,8.6-15.57,13.79-26.54,13.79-17.35,0-30.54-14.23-30.54-35.14h0Z"/>
      <path class="cls-2" d="M743.74,260.18c0-1.48.89-2.67,3.26-2.97,6.97-1.04,7.41-1.63,7.56-5.19.15-14.38.15-27.88.15-41.37,0-12.75,0-27.58-.15-42.7-.15-3.56-.89-4.3-8.45-5.63-2.52-.45-3.41-1.48-3.41-2.97,0-1.33.89-2.37,3.26-2.52,5.04-.44,11.71-1.63,18.24-3.56,1.63-.44,2.82.3,2.82,2.08-.3,22.83-.44,36.62-.44,47.6,6.97-7.41,15.42-12.46,24.02-12.46,11.42,0,19.72,7.71,19.28,22.09-.15,5.93-.15,10.08-.15,14.68,0,9.79,0,16.75.15,24.76.15,3.56.59,4.15,7.56,5.19,2.37.3,3.26,1.48,3.26,2.97,0,1.33-1.04,2.52-2.97,2.52-4.3,0-8.9-.44-13.94-.44s-9.49.44-13.79.44c-1.93,0-2.97-1.19-2.97-2.52,0-1.48.89-2.67,3.26-2.97,6.67-1.04,7.12-1.63,7.27-5.19.3-8.01.3-14.98.3-24.76,0-4.45,0-8.45-.15-14.09-.3-7.71-3.56-13.49-13.05-13.49-6.08,0-13.05,4.15-18.09,9.34v1.63c0,14.68,0,27.58.3,41.37,0,3.56.44,4.15,7.27,5.19,2.37.3,3.11,1.48,3.11,2.97,0,1.33-.89,2.52-2.82,2.52-4.3,0-8.9-.44-13.79-.44s-9.79.44-13.94.44c-1.93,0-2.97-1.19-2.97-2.52h0Z"/>
      <path class="cls-2" d="M824.55,227.71c0-21.8,14.53-37.22,33.21-37.22s32.62,14.83,32.62,36.48-14.68,37.22-33.21,37.22-32.62-14.68-32.62-36.48ZM877.93,230.08c0-21.2-10.23-32.62-21.65-32.62s-19.28,10.82-19.28,26.99c0,21.2,10.23,32.62,21.5,32.62s19.42-10.82,19.42-26.99h.01Z"/>
      <path class="cls-2" d="M897.79,227.71c0-21.8,14.53-37.22,33.21-37.22s32.62,14.83,32.62,36.48-14.68,37.22-33.21,37.22-32.62-14.68-32.62-36.48ZM951.17,230.08c0-21.2-10.23-32.62-21.65-32.62s-19.28,10.82-19.28,26.99c0,21.2,10.23,32.62,21.5,32.62s19.42-10.82,19.42-26.99h.01Z"/>
      <path class="cls-2" d="M968.07,260.18c0-1.48.89-2.52,3.26-2.97,6.82-1.04,7.41-1.63,7.41-5.19.3-14.53.3-28.17.3-41.37s0-27.58-.15-42.7c-.15-3.56-.89-4.3-8.45-5.63-2.52-.45-3.41-1.48-3.41-2.97,0-1.33.89-2.37,3.26-2.52,5.04-.44,11.71-1.63,18.24-3.56,1.63-.44,2.82.3,2.82,2.08-.44,28.62-.44,43.15-.44,55.31,0,13.2,0,26.84.3,41.37,0,3.56.59,4.15,7.41,5.19,2.37.44,3.26,1.48,3.26,2.97,0,1.33-1.04,2.52-2.97,2.52-4.15,0-8.9-.44-13.94-.44s-9.79.44-13.94.44c-1.93,0-2.97-1.19-2.97-2.52h0Z"/>
      <path class="cls-2" d="M1031.98,227.71c0-21.8,14.53-37.22,33.21-37.22s32.62,14.83,32.62,36.48-14.68,37.22-33.21,37.22-32.62-14.68-32.62-36.48ZM1085.36,230.08c0-21.2-10.23-32.62-21.65-32.62s-19.28,10.82-19.28,26.99c0,21.2,10.23,32.62,21.5,32.62s19.42-10.82,19.42-26.99h.01Z"/>
      <path class="cls-2" d="M1102.85,260.18c0-1.48.89-2.52,3.26-2.97,6.82-1.04,7.27-1.63,7.41-5.19.3-14.53.3-28.17.3-41.37v-11.27c-2.97,0-5.93,0-8.75.15-2.52.15-4-1.63-4-3.71,0-2.22,1.48-3.86,4-3.86,2.82.15,5.63.3,8.6.3,0-3.11-.15-5.93-.15-8.3-.3-21.06,9.19-34.25,28.02-34.25,10.53,0,18.09,5.34,18.09,11.12,0,3.26-2.08,5.78-5.63,5.78-6.82,0-5.78-9.34-15.12-9.34s-13.64,9.79-13.64,22.54c0,3.41.15,7.86.15,12.46,4.45,0,8.75,0,12.75-.3,2.67-.15,4,1.63,4,3.86,0,2.08-1.33,3.86-4,3.71-4-.15-8.16-.15-12.6-.15.15,4,.15,7.86.15,11.27,0,13.2,0,26.84.15,41.37.15,3.56.74,4.3,9.64,5.19,2.97.3,3.85,1.48,3.85,2.97,0,1.33-1.04,2.52-2.97,2.52-4.3,0-11.57-.44-16.61-.44s-9.79.44-13.94.44c-2.08,0-2.97-1.19-2.97-2.52h0Z"/>
      <path class="cls-2" d="M1186.03,259.89c0-1.48.89-2.82,3.41-3.11,8.75-.74,10.38-1.93,10.38-5.34.15-13.64.15-25.65.15-40.78s0-26.69-.15-40.33c0-3.26-2.08-4.74-10.68-6.08-2.52-.45-3.41-1.63-3.41-3.11,0-1.63,1.04-2.82,3.11-2.82,2.97,0,8.75.74,17.5.74s11.86-.59,21.8-.59c21.94,0,37.37,12.16,37.37,29.95,0,18.68-16.46,31.88-39.74,31.88-4.45,0-8.6-.3-13.2-.74,0,11.12,0,21.05.3,31.88,0,3.41,1.63,4.6,13.05,5.34,2.52.3,3.41,1.63,3.41,3.11,0,1.63-1.04,2.82-3.26,2.82-5.34,0-13.34-.44-19.72-.44s-11.71.44-17.05.44c-2.08,0-3.26-1.19-3.26-2.82h-.01ZM1212.57,212.44c4.45.59,8.3.74,12.46.74,16.9,0,26.99-9.49,26.99-23.87,0-15.12-8.9-23.72-27.28-23.72-3.11,0-6.23.3-8.45.89-2.52.74-3.41,1.93-3.41,4.89-.3,12.6-.3,24.47-.3,39.29v1.78h0Z"/>
      <path class="cls-2" d="M1281.37,242.09c.15-5.93.15-10.08.15-14.83,0-8.01,0-15.57-.15-22.69-.15-3.56-.89-4.15-8.3-5.49-2.67-.44-3.41-1.63-3.41-2.97,0-1.48.74-2.37,3.11-2.67,5.04-.3,11.71-1.63,18.24-3.41,1.63-.44,2.82.3,2.82,2.08-.44,19.42-.44,27.13-.44,35.14,0,4.3,0,8.45.15,13.94.15,8.01,3.56,13.79,12.75,13.79,5.93,0,12.6-4,17.64-9.19.15-7.86.15-13.34.15-18.53,0-8.01,0-15.57-.15-22.69-.15-3.56-.89-4.15-8.3-5.49-2.67-.44-3.41-1.63-3.41-2.97,0-1.48.74-2.37,3.11-2.67,5.04-.3,11.71-1.63,18.24-3.41,1.63-.44,2.82.3,2.82,2.08-.44,19.42-.44,27.13-.44,35.14s.15,14.53.3,21.94c.15,3.56.74,4.3,8.3,5.63,2.67.45,3.41,1.48,3.41,2.97,0,1.34-.89,2.37-3.11,2.52-5.19.45-11.71,1.63-18.24,3.56-1.63.44-2.82-.3-2.82-2.08,0-3.71.15-6.97.15-9.93-6.82,7.41-14.98,12.31-23.43,12.31-11.27,0-19.57-7.71-19.13-22.09h-.01Z"/>
      <path class="cls-2" d="M1357.28,261.52c.74-6.67.89-25.5.89-50.86,0-12.75,0-27.58-.15-42.7,0-3.56-.89-4.3-8.3-5.63-2.67-.45-3.41-1.48-3.41-2.97,0-1.33.74-2.37,3.11-2.52,5.04-.44,11.71-1.63,18.24-3.56,1.63-.44,2.82.3,2.82,2.08-.3,23.13-.3,37.07-.3,48.04,6.52-8.9,14.09-12.9,22.09-12.9,16.31,0,28.17,14.98,28.17,34.25,0,24.32-15.57,39.29-33.51,39.29-8.01,0-14.53-3.11-19.42-7.71-5.04,7.71-6.38,8.3-8.01,8.3-1.48,0-2.52-1.04-2.22-3.11h0ZM1370.18,248.91c3.71,5.04,9.64,8.16,16.16,8.16,12.46,0,21.94-10.82,21.94-29.36,0-17.2-9.19-27.88-20.31-27.88-6.82.15-12.9,3.41-17.79,10.38v.44c0,20.17-.15,30.69,0,38.26h0Z"/>
      <path class="cls-2" d="M1425.04,260.18c0-1.48.89-2.52,3.26-2.97,6.82-1.04,7.41-1.63,7.41-5.19.3-14.53.3-28.17.3-41.37s0-27.58-.15-42.7c-.15-3.56-.89-4.3-8.45-5.63-2.52-.45-3.41-1.48-3.41-2.97,0-1.33.89-2.37,3.26-2.52,5.04-.44,11.71-1.63,18.24-3.56,1.63-.44,2.82.3,2.82,2.08-.44,28.62-.44,43.15-.44,55.31,0,13.2,0,26.84.3,41.37,0,3.56.59,4.15,7.41,5.19,2.37.44,3.26,1.48,3.26,2.97,0,1.33-1.04,2.52-2.97,2.52-4.15,0-8.9-.44-13.94-.44s-9.79.44-13.94.44c-1.93,0-2.97-1.19-2.97-2.52h0Z"/>
      <path class="cls-2" d="M1463.15,260.18c0-1.48.89-2.52,3.26-2.97,6.82-1.04,7.27-1.63,7.41-5.19.3-8.01.3-14.98.3-24.76,0-8.01-.15-15.27-.3-22.69-.15-3.56-.74-4.15-8.3-5.49-2.67-.44-3.41-1.63-3.41-2.97,0-1.48.89-2.37,3.11-2.67,5.19-.3,11.86-1.63,18.39-3.41,1.48-.44,2.82.3,2.82,2.08-.44,19.72-.44,27.13-.44,35.14,0,9.79,0,16.75.15,24.76.15,3.56.59,4.15,7.41,5.19,2.52.44,3.41,1.48,3.41,2.97,0,1.33-1.04,2.52-2.97,2.52-4.3,0-8.9-.44-13.94-.44s-9.79.44-13.94.44c-2.08,0-2.97-1.19-2.97-2.52h0ZM1470.86,168.7c0-4.6,3.56-8.9,8.75-8.9,4.89,0,8.75,3.56,8.75,8.9,0,4.45-3.56,8.75-8.75,8.75-4.89,0-8.75-3.56-8.75-8.75Z"/>
      <path class="cls-2" d="M1501.4,229.05c0-22.09,15.12-38.4,33.66-38.4,15.12,0,23.43,8.75,23.43,15.57,0,4.15-2.82,6.23-6.23,6.23-2.82,0-6.08-2.08-7.56-7.41-1.63-5.63-4.74-7.71-10.53-7.71-10.68,0-20.46,9.49-20.46,28.32,0,16.01,8.6,28.91,22.69,28.91,6.82,0,12.46-2.67,18.53-7.71.89-.74,1.48-1.04,2.22-1.04,1.93,0,2.97,2.37,1.33,4.6-6.67,8.6-15.57,13.79-26.54,13.79-17.35,0-30.54-14.23-30.54-35.14h0Z"/>
      <path class="cls-2" d="M1594.22,259.89c0-1.48.89-2.82,3.41-3.11,8.75-.74,10.38-1.93,10.38-5.34.15-13.64.15-25.65.15-40.78s0-26.69-.15-40.33c0-3.26-2.08-4.74-10.68-6.08-2.52-.45-3.41-1.63-3.41-3.11,0-1.63,1.04-2.82,3.11-2.82,2.97,0,8.75.74,17.5.74s11.86-.59,21.8-.59c21.94,0,37.37,12.16,37.37,29.95,0,18.68-16.46,31.88-39.74,31.88-4.45,0-8.6-.3-13.2-.74,0,11.12,0,21.05.3,31.88,0,3.41,1.63,4.6,13.05,5.34,2.52.3,3.41,1.63,3.41,3.11,0,1.63-1.04,2.82-3.26,2.82-5.34,0-13.34-.44-19.72-.44s-11.71.44-17.05.44c-2.08,0-3.26-1.19-3.26-2.82h-.01ZM1620.76,212.44c4.45.59,8.3.74,12.46.74,16.9,0,26.99-9.49,26.99-23.87,0-15.12-8.9-23.72-27.28-23.72-3.11,0-6.23.3-8.45.89-2.52.74-3.41,1.93-3.41,4.89-.3,12.6-.3,24.47-.3,39.29v1.78h0Z"/>
      <path class="cls-2" d="M1677.1,227.71c0-21.8,14.53-37.22,33.21-37.22s32.62,14.83,32.62,36.48-14.68,37.22-33.21,37.22-32.62-14.68-32.62-36.48ZM1730.48,230.08c0-21.2-10.23-32.62-21.65-32.62s-19.28,10.82-19.28,26.99c0,21.2,10.23,32.62,21.5,32.62s19.42-10.82,19.42-26.99h.01Z"/>
      <path class="cls-2" d="M1747.38,260.18c0-1.48.89-2.52,3.26-2.97,6.82-1.04,7.41-1.63,7.41-5.19.3-14.53.3-28.17.3-41.37s0-27.58-.15-42.7c-.15-3.56-.89-4.3-8.45-5.63-2.52-.45-3.41-1.48-3.41-2.97,0-1.33.89-2.37,3.26-2.52,5.04-.44,11.71-1.63,18.24-3.56,1.63-.44,2.82.3,2.82,2.08-.44,28.62-.44,43.15-.44,55.31,0,13.2,0,26.84.3,41.37,0,3.56.59,4.15,7.41,5.19,2.37.44,3.26,1.48,3.26,2.97,0,1.33-1.04,2.52-2.97,2.52-4.15,0-8.9-.44-13.94-.44s-9.79.44-13.94.44c-1.93,0-2.97-1.19-2.97-2.52h0Z"/>
      <path class="cls-2" d="M1785.49,260.18c0-1.48.89-2.52,3.26-2.97,6.82-1.04,7.27-1.63,7.41-5.19.3-8.01.3-14.98.3-24.76,0-8.01-.15-15.27-.3-22.69-.15-3.56-.74-4.15-8.3-5.49-2.67-.44-3.41-1.63-3.41-2.97,0-1.48.89-2.37,3.11-2.67,5.19-.3,11.86-1.63,18.39-3.41,1.48-.44,2.82.3,2.82,2.08-.44,19.72-.44,27.13-.44,35.14,0,9.79,0,16.75.15,24.76.15,3.56.59,4.15,7.41,5.19,2.52.44,3.41,1.48,3.41,2.97,0,1.33-1.04,2.52-2.97,2.52-4.3,0-8.9-.44-13.94-.44s-9.79.44-13.94.44c-2.08,0-2.97-1.19-2.97-2.52h0ZM1793.2,168.7c0-4.6,3.56-8.9,8.75-8.9,4.89,0,8.75,3.56,8.75,8.9,0,4.45-3.56,8.75-8.75,8.75-4.89,0-8.75-3.56-8.75-8.75Z"/>
      <path class="cls-2" d="M1823.74,229.05c0-22.09,15.12-38.4,33.66-38.4,15.12,0,23.43,8.75,23.43,15.57,0,4.15-2.82,6.23-6.23,6.23-2.82,0-6.08-2.08-7.56-7.41-1.63-5.63-4.74-7.71-10.53-7.71-10.68,0-20.46,9.49-20.46,28.32,0,16.01,8.6,28.91,22.69,28.91,6.82,0,12.46-2.67,18.53-7.71.89-.74,1.48-1.04,2.22-1.04,1.93,0,2.97,2.37,1.33,4.6-6.67,8.6-15.57,13.79-26.54,13.79-17.35,0-30.54-14.23-30.54-35.14h0Z"/>
      <path class="cls-2" d="M1888.68,292.21c0-3.41,2.52-5.93,6.82-6.38,8.01-.89,13.2-5.93,20.91-22.69-8.16-20.46-15.72-39.29-23.58-58.72-2.08-5.04-3.71-6.08-7.56-6.82-2.52-.45-3.41-1.63-3.41-3.11s1.04-2.67,2.97-2.67c4.3,0,9.04.44,14.53.44,5.19,0,9.49-.44,13.64-.44,1.93,0,2.97,1.19,2.97,2.67s-.89,2.67-3.26,3.11c-7.56.89-7.71,3.26-6.38,7.12,5.34,15.72,10.68,30.1,16.46,44.04,6.97-16.16,12.16-29.21,17.94-44.04,1.48-3.71,1.19-6.23-6.38-7.12-2.37-.45-3.26-1.63-3.26-3.11s.89-2.67,2.82-2.67c3.41,0,6.97.44,11.27.44s8.3-.44,11.86-.44c1.93,0,2.97,1.19,2.97,2.67s-.89,2.67-3.41,3.11c-3.85.74-5.49,1.78-7.71,6.82-8.01,19.28-15.87,37.81-24.61,58.12-12.9,29.95-21.35,35.44-28.47,35.44-5.04,0-7.12-3.11-7.12-5.78h-.01Z"/>
    </g>
  </g>
</svg>