<?xml version="1.0" encoding="UTF-8"?> <svg xmlns="http://www.w3.org/2000/svg" width="142" height="142" viewBox="0 0 142 142" fill="none"><rect x="0.222656" y="0.538269" width="140.906" height="140.906" fill="#13202F"></rect><path d="M109.077 72.55C106.003 77.9481 101.474 82.2276 95.4889 85.3991C89.4934 88.5707 82.2488 90.1564 73.7334 90.1564H60.667V123.577H27.6807V18.4055H73.7225C86.5934 18.4055 96.4665 21.6748 103.353 28.2134C110.239 34.752 113.671 43.5172 113.671 54.509C113.671 61.1454 112.14 67.1627 109.066 72.5608L109.077 72.55ZM80.2611 54.4982C80.2611 48.0573 76.8398 44.8423 70.0079 44.8423H60.6453V64.154H70.0079C76.8398 64.154 80.2611 60.939 80.2611 54.4982Z" fill="white"></path></svg> 